<svg id="GRAPHIC" xmlns="http://www.w3.org/2000/svg" viewBox="0 0 30.61 52.16"><defs><style>.cls-1,.cls-3{fill:none;}.cls-1,.cls-2,.cls-3,.cls-5{stroke:#005f87;stroke-miterlimit:3.86;}.cls-1,.cls-3,.cls-5{stroke-width:0.23px;}.cls-2,.cls-5{fill:#a6c7d5;}.cls-2{stroke-width:0.85px;}.cls-3{fill-rule:evenodd;}.cls-4{fill:#e5f5f9;}.cls-6{fill:#005f87;}.cls-7{fill:#d9e7ed;}</style></defs><title>G_SY02_XX_01578H</title><rect class="cls-1" x="16.5" y="29.75" width="12.5" height="8.52"/><rect class="cls-2" x="0.43" y="0.43" width="29.76" height="51.31"/><polygon class="cls-3" points="24.05 8.29 24.05 8.34 24.05 8.39 24.05 8.45 24.06 8.5 24.07 8.55 24.08 8.61 24.09 8.66 24.11 8.72 24.13 8.77 24.15 8.82 24.18 8.87 24.2 8.92 24.23 8.97 24.26 9.02 24.3 9.06 24.33 9.1 24.37 9.14 24.4 9.18 24.44 9.22 24.48 9.25 24.53 9.28 24.57 9.32 24.62 9.35 24.67 9.37 24.72 9.4 24.77 9.42 24.82 9.44 24.87 9.46 24.93 9.48 24.98 9.49 25.04 9.5 25.09 9.51 25.15 9.51 25.2 9.52 25.25 9.52 25.31 9.51 25.36 9.51 25.41 9.5 25.47 9.49 25.52 9.48 25.58 9.46 25.63 9.44 25.68 9.42 25.73 9.4 25.79 9.37 25.83 9.35 25.88 9.32 25.93 9.28 25.97 9.25 26.01 9.22 26.05 9.18 26.09 9.14 26.12 9.1 26.16 9.06 26.19 9.02 26.22 8.97 26.25 8.92 26.27 8.87 26.3 8.82 26.32 8.77 26.34 8.72 26.36 8.66 26.37 8.61 26.38 8.55 26.39 8.5 26.4 8.45 26.4 8.39 26.4 8.34 26.4 8.29 26.4 8.24 26.39 8.19 26.38 8.13 26.37 8.08 26.36 8.03 26.34 7.98 26.33 7.93 26.31 7.88 26.29 7.83 26.26 7.78 26.24 7.73 26.21 7.69 26.18 7.65 26.14 7.6 26.11 7.56 26.08 7.53 26.04 7.49 26 7.46 25.96 7.42 25.92 7.39 25.88 7.36 25.83 7.33 25.79 7.3 25.74 7.28 25.69 7.26 25.64 7.24 25.59 7.22 25.54 7.2 25.49 7.19 25.43 7.18 25.38 7.17 25.33 7.17 25.28 7.16 25.23 7.16 25.18 7.16 25.12 7.17 25.07 7.17 25.02 7.18 24.97 7.19 24.91 7.2 24.86 7.22 24.81 7.24 24.76 7.26 24.71 7.28 24.66 7.3 24.62 7.33 24.57 7.36 24.53 7.39 24.49 7.42 24.45 7.46 24.41 7.49 24.38 7.53 24.34 7.56 24.31 7.6 24.28 7.65 24.25 7.69 24.22 7.73 24.19 7.78 24.17 7.83 24.14 7.88 24.12 7.93 24.11 7.98 24.09 8.03 24.08 8.08 24.07 8.13 24.06 8.19 24.05 8.24 24.05 8.29"/><polygon class="cls-3" points="4.21 8.29 4.21 8.34 4.21 8.39 4.21 8.45 4.22 8.5 4.23 8.55 4.24 8.61 4.25 8.66 4.27 8.72 4.29 8.77 4.31 8.82 4.33 8.87 4.36 8.92 4.39 8.97 4.42 9.02 4.45 9.06 4.49 9.1 4.52 9.14 4.56 9.18 4.6 9.22 4.64 9.25 4.68 9.28 4.73 9.32 4.78 9.35 4.83 9.37 4.87 9.4 4.93 9.42 4.98 9.44 5.03 9.46 5.08 9.48 5.14 9.49 5.2 9.5 5.25 9.51 5.3 9.51 5.36 9.52 5.41 9.52 5.46 9.51 5.52 9.51 5.57 9.5 5.63 9.49 5.68 9.48 5.74 9.46 5.79 9.44 5.84 9.42 5.89 9.4 5.94 9.37 5.99 9.35 6.04 9.32 6.08 9.28 6.13 9.25 6.17 9.22 6.21 9.18 6.24 9.14 6.28 9.1 6.31 9.06 6.35 9.02 6.38 8.97 6.41 8.92 6.43 8.87 6.46 8.82 6.48 8.77 6.5 8.72 6.51 8.66 6.53 8.61 6.54 8.55 6.55 8.5 6.55 8.45 6.56 8.39 6.56 8.34 6.56 8.29 6.56 8.24 6.55 8.19 6.54 8.13 6.53 8.08 6.52 8.03 6.5 7.98 6.49 7.93 6.47 7.88 6.44 7.83 6.42 7.78 6.39 7.73 6.37 7.69 6.33 7.65 6.3 7.6 6.27 7.56 6.23 7.53 6.2 7.49 6.16 7.46 6.12 7.42 6.08 7.39 6.04 7.36 5.99 7.33 5.94 7.3 5.9 7.28 5.85 7.26 5.8 7.24 5.75 7.22 5.7 7.2 5.64 7.19 5.59 7.18 5.54 7.17 5.49 7.17 5.43 7.16 5.38 7.16 5.33 7.16 5.28 7.17 5.23 7.17 5.18 7.18 5.12 7.19 5.07 7.2 5.02 7.22 4.97 7.24 4.92 7.26 4.87 7.28 4.82 7.3 4.78 7.33 4.73 7.36 4.69 7.39 4.65 7.42 4.61 7.46 4.57 7.49 4.53 7.53 4.5 7.56 4.46 7.6 4.43 7.65 4.4 7.69 4.37 7.73 4.35 7.78 4.32 7.83 4.3 7.88 4.28 7.93 4.26 7.98 4.25 8.03 4.24 8.08 4.23 8.13 4.22 8.19 4.21 8.24 4.21 8.29"/><line class="cls-1" x1="0.43" y1="45.36" x2="30.18" y2="45.36"/><rect class="cls-4" x="2.58" y="31.69" width="12.93" height="5.56"/><rect class="cls-1" x="17.94" y="34.75" width="2.27" height="2.27"/><rect class="cls-1" x="17.94" y="31.92" width="2.27" height="2.27"/><polygon class="cls-3" points="4.21 39.93 4.21 39.98 4.21 40.03 4.21 40.08 4.22 40.14 4.23 40.19 4.24 40.25 4.25 40.3 4.27 40.35 4.29 40.41 4.31 40.46 4.33 40.51 4.36 40.56 4.39 40.6 4.42 40.65 4.45 40.7 4.49 40.74 4.52 40.78 4.56 40.81 4.6 40.85 4.64 40.89 4.68 40.92 4.73 40.95 4.78 40.98 4.83 41.01 4.87 41.04 4.93 41.06 4.98 41.08 5.03 41.1 5.08 41.11 5.14 41.13 5.2 41.14 5.25 41.14 5.3 41.15 5.36 41.15 5.41 41.15 5.46 41.15 5.52 41.14 5.57 41.14 5.63 41.13 5.68 41.11 5.74 41.1 5.79 41.08 5.84 41.06 5.89 41.04 5.94 41.01 5.99 40.98 6.04 40.95 6.08 40.92 6.13 40.89 6.17 40.85 6.21 40.81 6.24 40.78 6.28 40.74 6.31 40.7 6.35 40.65 6.38 40.6 6.41 40.56 6.43 40.51 6.46 40.46 6.48 40.41 6.5 40.35 6.51 40.3 6.53 40.25 6.54 40.19 6.55 40.14 6.55 40.08 6.56 40.03 6.56 39.98 6.56 39.93 6.56 39.87 6.55 39.82 6.54 39.77 6.53 39.72 6.52 39.66 6.5 39.61 6.49 39.56 6.47 39.51 6.44 39.46 6.42 39.42 6.39 39.37 6.37 39.33 6.33 39.28 6.3 39.24 6.27 39.2 6.23 39.16 6.2 39.13 6.16 39.09 6.12 39.06 6.08 39.03 6.04 39 5.99 38.97 5.94 38.94 5.9 38.92 5.85 38.89 5.8 38.87 5.75 38.86 5.7 38.84 5.64 38.83 5.59 38.82 5.54 38.81 5.49 38.8 5.43 38.8 5.38 38.8 5.33 38.8 5.28 38.8 5.23 38.81 5.18 38.82 5.12 38.83 5.07 38.84 5.02 38.86 4.97 38.87 4.92 38.89 4.87 38.92 4.82 38.94 4.78 38.97 4.73 39 4.69 39.03 4.65 39.06 4.61 39.09 4.57 39.13 4.53 39.16 4.5 39.2 4.46 39.24 4.43 39.28 4.4 39.33 4.37 39.37 4.35 39.42 4.32 39.46 4.3 39.51 4.28 39.56 4.26 39.61 4.25 39.66 4.24 39.72 4.23 39.77 4.22 39.82 4.21 39.87 4.21 39.93"/><rect class="cls-1" x="20.77" y="31.92" width="2.27" height="2.27"/><rect class="cls-4" x="23.96" y="33.89" width="0.65" height="0.65"/><rect class="cls-4" x="23.96" y="32.95" width="0.65" height="0.65"/><rect class="cls-4" x="23.96" y="32.02" width="0.65" height="0.65"/><rect class="cls-5" x="18.83" y="26.3" width="0.9" height="0.9"/><polygon class="cls-3" points="24.05 39.93 24.05 39.98 24.05 40.03 24.05 40.08 24.06 40.14 24.07 40.19 24.08 40.25 24.09 40.3 24.11 40.35 24.13 40.41 24.15 40.46 24.18 40.51 24.2 40.56 24.23 40.6 24.26 40.65 24.3 40.7 24.33 40.74 24.37 40.78 24.4 40.81 24.44 40.85 24.48 40.89 24.53 40.92 24.57 40.95 24.62 40.98 24.67 41.01 24.72 41.04 24.77 41.06 24.82 41.08 24.87 41.1 24.93 41.11 24.98 41.13 25.04 41.14 25.09 41.14 25.15 41.15 25.2 41.15 25.25 41.15 25.31 41.15 25.36 41.14 25.41 41.14 25.47 41.13 25.52 41.11 25.58 41.1 25.63 41.08 25.68 41.06 25.73 41.04 25.79 41.01 25.83 40.98 25.88 40.95 25.93 40.92 25.97 40.89 26.01 40.85 26.05 40.81 26.09 40.78 26.12 40.74 26.16 40.7 26.19 40.65 26.22 40.6 26.25 40.56 26.27 40.51 26.3 40.46 26.32 40.41 26.34 40.35 26.36 40.3 26.37 40.25 26.38 40.19 26.39 40.14 26.4 40.08 26.4 40.03 26.4 39.98 26.4 39.93 26.4 39.87 26.39 39.82 26.38 39.77 26.37 39.72 26.36 39.66 26.34 39.61 26.33 39.56 26.31 39.51 26.29 39.46 26.26 39.42 26.24 39.37 26.21 39.33 26.18 39.28 26.14 39.24 26.11 39.2 26.08 39.16 26.04 39.13 26 39.09 25.96 39.06 25.92 39.03 25.88 39 25.83 38.97 25.79 38.94 25.74 38.92 25.69 38.89 25.64 38.87 25.59 38.86 25.54 38.84 25.49 38.83 25.43 38.82 25.38 38.81 25.33 38.8 25.28 38.8 25.23 38.8 25.18 38.8 25.12 38.8 25.07 38.81 25.02 38.82 24.97 38.83 24.91 38.84 24.86 38.86 24.81 38.87 24.76 38.89 24.71 38.92 24.66 38.94 24.62 38.97 24.57 39 24.53 39.03 24.49 39.06 24.45 39.09 24.41 39.13 24.38 39.16 24.34 39.2 24.31 39.24 24.28 39.28 24.25 39.33 24.22 39.37 24.19 39.42 24.17 39.46 24.14 39.51 24.12 39.56 24.11 39.61 24.09 39.66 24.08 39.72 24.07 39.77 24.06 39.82 24.05 39.87 24.05 39.93"/><polyline class="cls-3" points="30.19 26.93 20.69 26.93 20.69 13.62 30.19 13.62"/><polyline class="cls-3" points="0.42 26.93 9.92 26.93 9.92 13.62 0.42 13.62"/><rect class="cls-1" x="20.77" y="34.75" width="2.27" height="2.27"/><line class="cls-1" x1="0.42" y1="6.79" x2="30.19" y2="6.79"/><line class="cls-1" x1="0.42" y1="9.91" x2="30.19" y2="9.91"/><line class="cls-1" x1="0.42" y1="12.74" x2="30.19" y2="12.74"/><rect class="cls-1" x="12.16" y="13.38" width="6.29" height="13.79"/><line class="cls-1" x1="0.42" y1="27.75" x2="30.19" y2="27.75"/><line class="cls-1" x1="0.42" y1="29.75" x2="30.19" y2="29.75"/><line class="cls-1" x1="0.48" y1="38.27" x2="30.13" y2="38.27"/><rect class="cls-5" x="11.63" y="18.44" width="7.34" height="1.99"/><rect class="cls-6" x="1.27" y="9.91" width="7.37" height="1.98"/><rect class="cls-7" x="11.6" y="18.97" width="7.36" height="0.93"/><rect class="cls-1" x="11.63" y="18.44" width="7.34" height="1.99"/><line class="cls-1" x1="11.6" y1="18.97" x2="18.96" y2="18.97"/><line class="cls-1" x1="11.6" y1="19.9" x2="18.96" y2="19.9"/></svg>